<svg width="321" height="52" xmlns="http://www.w3.org/2000/svg" xmlns:xlink="http://www.w3.org/1999/xlink">
  <g fill="none" fill-rule="evenodd">
    <g transform="translate(36.666)">
      <path d="M27.213 39.192h4.498l5.956-19.294c.727-2.443 1.176-3.578 1.68-4.372.395-.565.678-.904 1.182-1.25.45-.28 1.01-.449 1.46-.51v-.445h-7.072v.446c.56.06.897.17 1.458.45.56.29.954.744.954 1.758 0 1.086-.112 1.709-.783 4.093l-3.538 11.404h-.116l-3.256-11.639c-.51-1.868-.843-2.889-.843-3.858 0-.844.449-1.469.899-1.758a5.291 5.291 0 011.57-.45v-.446h-13.93v.446c.337.115.786.17 1.29.45.506.344.788.8 1.238 1.758l1.065 3.014-3.987 12.483h-.112l-3.144-11.464c-.51-1.869-.854-3.064-.854-4.083 0-.794.288-1.303.854-1.65.398-.279.898-.448 1.514-.508v-.446H.924v.446c.394.06.738.115 1.071.23.333.104.615.22.903.51.61.564 1.115 1.584 2.353 5.672l6.178 19.013h4.27l5.734-18.559h.112l5.668 18.56zm26.46 4.708c.965-2.264 7.703-20.083 9.273-24.176.732-1.925 1.292-3.124 1.742-3.913.504-.74 1.01-1.25 1.57-1.535.449-.34.898-.449 1.403-.51v-.445h-7.638v.446c.515.06.899.17 1.41.45.67.344 1.12.854 1.12 1.874 0 1.084-.166 2.047-.95 3.922l-3.937 10.55h-.167l-3.703-10.78c-.566-1.818-1.016-2.948-1.016-3.917 0-.795.4-1.244.783-1.59.454-.279 1.126-.449 1.801-.51v-.445H40.418v.446c.56.06 1.126.23 1.687.509.675.4 1.009 1.025 1.574 1.99.504.85 1.298 2.498 2.14 4.651l6.96 17.991c.278.624.561 1.424.4 2.448 0 .45-.737 2.723-.964 3.234-.955 2.328-1.908 3.862-3.029 3.862-.51 0-.732-.23-.903-.685-.112-.683-.283-1.593-.783-2.387-.736-1.13-1.802-1.64-3.26-1.64-2.08 0-3.317 1.529-3.317 3.283 0 2.56 2.247 4.087 4.892 4.087 2.185 0 3.703-.794 4.997-2.218 1.286-1.419 2.074-3.123 2.862-4.992zM77.157.21H66.435v.559c.727.06 1.459.11 2.13.57.338.23.615.569.792 1.194.161.624.272 1.645.272 3.234V33.92c0 1.76-.05 3.404-.166 5.102h.676l3.984-3.233h.287c1.62 2.335 4.765 3.739 8.082 3.739 6.804 0 13.032-3.969 13.032-13.328 0-9.365-4.77-13.453-10.5-13.453-3.543 0-6.242 1.47-7.48 4.428h-.167v-9.76c0-2.724.168-5.567.168-6.81 0-.28-.168-.396-.39-.396zm5.563 14.296c2.977 0 4.663 2.44 4.663 11.749 0 8.86-1.791 12.208-5.113 12.208-1.514 0-2.866-.625-3.82-2.499-.843-1.589-1.072-3.633-1.072-6.761v-5.84c0-3.18.733-5.224 1.405-6.588 1.13-1.644 2.472-2.269 3.937-2.269zm15.284 11.639c0 8.285 5.835 13.382 13.366 13.382 7.532 0 13.367-5.152 13.367-13.382 0-8.295-5.89-13.398-13.367-13.398-7.415 0-13.366 5.162-13.366 13.398zm8.081 0c0-5.908.621-9.71 2.135-11.245.909-.904 2.025-1.249 3.15-1.249 1.07 0 2.247.345 3.15 1.25 1.515 1.533 2.136 5.337 2.136 11.244 0 5.787-.677 9.589-2.135 11.24-.904.903-2.02 1.248-3.151 1.248-1.126 0-2.241-.345-3.15-1.249-1.514-1.65-2.135-5.452-2.135-11.24zm31.403-6.702h-.172c0-1.018.116-5.167.116-5.786 0-.285-.116-.336-.394-.336h-10.495v.506c.677 0 1.348.11 1.965.449.503.346.842.855.953 1.7.172.739.172 2.558.172 3.468V31.99c0 1.815-.111 3.349-.227 4.313-.287 1.08-.671 1.42-1.342 1.874a6.771 6.771 0 01-1.58.335v.51h14.037v-.51a5.287 5.287 0 01-1.459-.336c-.499-.223-.842-.624-1.12-1.303-.394-.965-.566-2.334-.566-5.112v-4.883c0-1.474.056-3.297.112-4.373.454-3.517 2.19-6.526 3.427-6.526.792 0 .899 1.14 1.409 2.383.56 1.36 1.458 2.384 3.538 2.384 2.02 0 3.483-1.588 3.483-3.797 0-1.305-.394-2.27-1.015-2.893-.843-.85-2.074-1.31-3.538-1.31-2.014 0-3.372.739-4.381 1.595-1.122.959-2.191 2.433-2.923 5.102v-.001zm25.395-5.792c2.195 0 2.81 1.25 3.25 4.314.232 2.558 1.58 3.923 3.715 3.923 1.853 0 3.373-1.025 3.373-3.178 0-1.596-.955-2.9-2.135-3.748-1.399-1.135-3.54-2.216-8.148-2.216-7.415 0-13.25 5.563-13.25 13.569 0 4.936 1.852 8.4 4.664 10.494 2.07 1.704 4.881 2.719 8.586 2.719 6.406 0 9.55-3.969 10.732-8.445l-.843-.291c-.955 3.184-3.317 7.097-8.486 7.097-1.908 0-3.2-.73-4.098-1.755-1.403-1.474-2.417-4.032-2.417-10.504 0-5.792.897-9.25 2.134-10.73.787-.799 1.746-1.249 2.923-1.249zm34.663 16.352h-.5c-.398.679-2.59 3.913-3.715 5.556-1.342 1.874-2.64 2.618-4.942 2.618h-5.109v-.288l13.59-24.118v-.45h-19.995l-1.964 8.392h.56c1.126-2.04 2.585-4.143 3.595-5.223 1.237-1.53 2.301-2.214 4.16-2.214h4.83v.23l-13.483 24.122v.394h21.232l1.742-9.02zm27.918 7.886l-.166-.505c-.504.28-1.07.454-1.746.454-.615 0-1.12-.23-1.404-.679-.449-.625-.56-1.6-.56-4.093V19.274c0-4.203-3.367-6.527-10.666-6.527-3.15 0-6.739.965-8.485 2.669-.953.85-1.46 1.924-1.46 3.288 0 1.873 1.405 2.894 3.313 2.894 2.301 0 3.589-1.02 3.65-3.574.05-1.704 0-2.893.615-3.633.45-.509 1.354-.799 2.367-.799 2.019 0 2.979.854 2.979 3.808v3.972c-.117 2.16-1.919 3.409-6.638 4.433-2.641.79-4.543 1.244-6.063 2.663-1.23 1.14-1.742 2.899-1.742 4.488 0 4.307 3.146 6.572 7.583 6.572 3.881 0 6.072-1.69 6.915-3.85h.222c.172 1.536.504 2.33 1.237 2.894.615.51 1.853.956 3.71.956 3.306 0 5.553-.85 6.34-1.64zM213.85 23.87v9.595c0 2.498-1.974 3.918-3.666 3.918-1.97 0-3.088-1.42-3.088-5.343 0-1.924.166-3.173.787-4.022.559-.855 1.513-1.48 2.816-2.103 1.232-.626 2.468-1.135 3.15-2.045zm17.348 15.886c2.645 0 4.377-1.874 4.377-4.307 0-2.324-1.732-4.258-4.377-4.258-2.64 0-4.32 1.874-4.32 4.258 0 2.433 1.68 4.307 4.32 4.307zm26.97-13.102c0 9.08-1.913 11.858-5.118 11.858-1.63 0-2.807-.675-3.599-1.874-.843-1.524-1.348-3.228-1.348-6.636V23.02c0-2.213.505-4.547 1.525-6.131.949-1.304 2.241-2.214 3.871-2.214 2.812 0 4.67 2.268 4.67 11.978v.001zm-17.803 17.82c0 1.754.05 3.002-.177 3.863-.227 1.133-.788 1.528-1.347 1.808-.34.23-.783.29-1.46.346v.499h13.817v-.5c-.677-.055-1.238-.114-1.632-.394-.565-.23-1.07-.745-1.18-1.76-.227-.86-.283-2.108-.283-3.863v-6.976h.227c1.46 1.41 3.377 2.03 6.072 2.03 5.957 0 11.793-4.644 11.793-13.498 0-9.086-4.827-13.283-10.5-13.283-3.827 0-6.244 2.094-7.481 4.882h-.167l.056-3.862c0-.336-.161-.446-.388-.446h-10.45v.446c.732.06 1.52.23 2.08.679.45.346.732.855.899 1.704.12.74.12 2.16.12 3.063v25.263-.002zm38.524-39.109c0-2.209.056-3.518.056-4.707 0-.4-.106-.45-.394-.45h-10.383v.505c.842.056 1.292.115 1.797.51.504.345.787.854 1.009 1.644.112.74.112 2.559.112 3.408v26.34c0 1.699 0 2.773-.217 3.858-.177.79-.738 1.304-1.41 1.65-.337.223-.897.339-1.462.389v.51h14.037v-.51c-.56-.05-1.121-.166-1.626-.39-.62-.345-1.125-.86-1.407-1.873-.112-.86-.112-2.045-.112-3.633V5.367z" fill="#231F20" fill-rule="nonzero" />
    </g>
    <path fill="#DC1A21" fill-rule="nonzero" d="M0 49.998h31.11V0H0z"/>
  </g>
</svg>
